# This file uses centimeters as units for non-parametric coordinates.

mtllib TableMesh.mtl
g default
v 6.545695 0.014197 4.076164
v 7.577072 0.014197 4.076164
v 6.713767 9.170125 3.075467
v 7.408999 9.170125 3.075467
v 6.713767 9.170125 2.775929
v 7.408999 9.170125 2.775929
v 6.545695 0.014197 3.678715
v 7.577072 0.014197 3.678715
v 7.577072 0.323682 3.678715
v 6.545695 0.323682 3.678715
v 6.545695 0.323682 4.076164
v 7.577072 0.323682 4.076164
v 7.577072 0.323682 -3.653867
v 6.545695 0.323682 -3.653867
v 7.577072 0.014197 -3.653867
v 6.545695 0.014197 -3.653867
v -7.945328 0.014197 -3.650649
v -6.913951 0.014197 -3.650649
v -7.777256 9.170125 -2.747863
v -7.082024 9.170125 -2.747863
v -7.777256 9.170125 -3.047401
v -7.082024 9.170125 -3.047401
v -7.945328 0.014197 -4.048098
v -6.913951 0.014197 -4.048098
v -6.913951 0.323682 -4.048098
v -7.945328 0.323682 -4.048098
v -7.945328 0.323682 -3.650649
v -6.913951 0.323682 -3.650649
v -9.453522 8.432542 6.121411
v 9.576286 8.432542 6.121411
v -9.528643 9.258007 6.169742
v 9.651407 9.258007 6.169742
v -9.528643 9.258007 -6.169742
v 9.651407 9.258007 -6.169742
v -9.453522 8.432542 -6.121411
v 9.576286 8.432542 -6.121411
v -9.303363 9.576528 6.024808
v 9.426127 9.576528 6.024808
v 9.426127 9.576528 -6.024808
v -9.303363 9.576528 -6.024808
v -8.838572 9.841296 5.725784
v 8.961336 9.841296 5.725784
v 8.961336 9.841296 -5.725784
v -8.838572 9.841296 -5.725784
v -8.644637 8.400883 -5.601015
v 8.767402 8.400883 -5.601015
v 8.767402 8.400883 5.601015
v -8.644637 8.400883 5.601015
v -8.644637 9.181310 -5.601015
v 8.767402 9.181310 -5.601015
v 8.767402 9.181310 5.601015
v -8.644637 9.181310 5.601015
v 6.545695 0.014197 -3.650649
v 7.577072 0.014197 -3.650649
v 6.713767 9.170125 -2.747863
v 7.408999 9.170125 -2.747863
v 6.713767 9.170125 -3.047401
v 7.408999 9.170125 -3.047401
v 6.545695 0.014197 -4.048098
v 7.577072 0.014197 -4.048098
v 7.577072 0.323682 -4.048098
v 6.545695 0.323682 -4.048098
v 6.545695 0.323682 -3.650649
v 7.577072 0.323682 -3.650649
v -7.945328 0.014197 4.076164
v -6.913951 0.014197 4.076164
v -7.777256 9.170125 3.075467
v -7.082024 9.170125 3.075467
v -7.777256 9.170125 2.775929
v -7.082024 9.170125 2.775929
v -7.945328 0.014197 3.678715
v -6.913951 0.014197 3.678715
v -6.913951 0.323682 3.678715
v -7.945328 0.323682 3.678715
v -7.945328 0.323682 4.076164
v -6.913951 0.323682 4.076164
v -6.913951 0.323682 -3.653867
v -7.945328 0.323682 -3.653867
v -6.913951 0.014197 -3.653867
v -7.945328 0.014197 -3.653867
vt 0.165169 0.774726
vt 0.190646 0.775111
vt 0.192299 0.976745
vt 0.173312 0.977115
vt 0.166235 0.978121
vt 0.149670 0.979162
vt 0.132854 0.767370
vt 0.157416 0.766392
vt 0.163404 0.757386
vt 0.191019 0.757423
vt 0.186721 0.767133
vt 0.167592 0.766060
vt 0.197468 0.766149
vt 0.197301 0.977117
vt 0.131756 0.591403
vt 0.156378 0.591077
vt 0.188780 0.590781
vt 0.196259 0.590952
vt 0.161678 0.590695
vt 0.242495 0.207013
vt 0.282587 0.203600
vt 0.286387 0.531368
vt 0.252734 0.530306
vt 0.330984 0.530987
vt 0.301750 0.531273
vt 0.296046 0.203195
vt 0.337700 0.203538
vt 0.338236 0.190699
vt 0.296682 0.191102
vt 0.287116 0.185538
vt 0.343056 0.185016
vt 0.350901 0.200928
vt 0.343146 0.532306
vt 0.450734 0.953875
vt 0.960443 0.954977
vt 0.976505 0.975061
vt 0.436330 0.975435
vt 0.424382 0.138050
vt 0.939142 0.135402
vt 0.940729 0.466553
vt 0.425969 0.469200
vt 0.025117 0.015505
vt 0.539668 0.013634
vt 0.525888 0.031806
vt 0.040381 0.032386
vt 0.443909 0.607450
vt 0.895550 0.608428
vt 0.894922 0.899652
vt 0.443257 0.898704
vt 0.958759 0.538097
vt 0.973200 0.516583
vt 0.041557 0.383672
vt 0.027812 0.401880
vt 0.399553 0.118391
vt 0.963544 0.115343
vt 0.953932 0.124256
vt 0.409421 0.127090
vt 0.965558 0.486212
vt 0.955691 0.477513
vt 0.401568 0.489259
vt 0.411179 0.480346
vt 0.408507 0.579485
vt 0.930089 0.579364
vt 0.907949 0.593275
vt 0.430314 0.593425
vt 0.930328 0.927610
vt 0.908520 0.913674
vt 0.408736 0.927800
vt 0.430878 0.913873
vt 0.232402 0.674918
vt 0.268385 0.672130
vt 0.269566 0.966147
vt 0.239388 0.964965
vt 0.309570 0.966108
vt 0.283346 0.966166
vt 0.280460 0.671858
vt 0.317819 0.672449
vt 0.318387 0.660936
vt 0.281112 0.661015
vt 0.272570 0.655960
vt 0.322749 0.655872
vt 0.329678 0.670197
vt 0.320469 0.967374
vt 0.156809 0.316267
vt 0.185193 0.317389
vt 0.181542 0.542162
vt 0.160370 0.542057
vt 0.152455 0.542986
vt 0.133965 0.543693
vt 0.120994 0.307188
vt 0.148395 0.306767
vt 0.155314 0.296893
vt 0.186091 0.297686
vt 0.181035 0.308392
vt 0.159745 0.306674
vt 0.193040 0.307588
vt 0.187107 0.542713
vt 0.124563 0.111038
vt 0.152014 0.111345
vt 0.188135 0.111898
vt 0.196466 0.112293
vt 0.157932 0.111064
vn 0.000000 0.107894 0.994162
vn 0.000000 0.107894 0.994162
vn 0.000000 0.112402 0.993663
vn 0.000000 0.112402 0.993663
vn 0.000000 1.000000 0.000000
vn 0.000000 1.000000 0.000000
vn 0.000000 1.000000 0.000000
vn 0.000000 1.000000 0.000000
vn 0.000000 -0.101523 -0.994833
vn 0.000000 -0.101524 -0.994833
vn 0.000000 -0.101523 -0.994833
vn 0.000000 -0.101523 -0.994833
vn 0.000000 -1.000000 0.000000
vn 0.000000 -1.000000 0.000000
vn 0.000000 -1.000000 0.000000
vn 0.000000 -1.000000 0.000000
vn 0.999834 0.018213 0.000000
vn 0.999940 0.010989 0.000000
vn 0.999820 0.018995 0.000000
vn 0.999820 0.018995 0.000000
vn -0.999940 0.010989 0.000000
vn -0.999834 0.018213 0.000000
vn -0.999820 0.018995 0.000000
vn -0.999820 0.018995 0.000000
vn -1.000000 0.000000 0.000000
vn -1.000000 0.000000 0.000000
vn 0.000000 0.000000 1.000000
vn 0.000000 0.000000 1.000000
vn 1.000000 0.000000 0.000000
vn 1.000000 0.000000 0.000000
vn 0.000000 1.000000 0.000000
vn 0.000000 1.000000 0.000000
vn 0.000000 1.000000 0.000000
vn 0.000000 1.000000 0.000000
vn 1.000000 0.000000 0.000000
vn 1.000000 0.000000 0.000000
vn 0.000000 -1.000000 0.000000
vn 0.000000 -1.000000 0.000000
vn -1.000000 0.000000 0.000000
vn -1.000000 0.000000 0.000000
vn 0.000000 -0.101523 0.994833
vn 0.000000 -0.101523 0.994833
vn 0.000000 -0.101524 0.994833
vn 0.000000 -0.101523 0.994833
vn 0.000000 1.000000 0.000000
vn 0.000000 1.000000 0.000000
vn 0.000000 1.000000 0.000000
vn 0.000000 1.000000 0.000000
vn -0.000000 0.112402 -0.993663
vn -0.000000 0.112402 -0.993663
vn -0.000000 0.107894 -0.994162
vn -0.000000 0.107894 -0.994162
vn 0.000000 -1.000000 -0.000000
vn 0.000000 -1.000000 -0.000000
vn 0.000000 -1.000000 -0.000000
vn 0.000000 -1.000000 -0.000000
vn 0.999832 0.018310 0.000000
vn 0.999834 0.018213 0.000000
vn 0.999820 0.018995 0.000000
vn 0.999820 0.018995 0.000000
vn -0.999834 0.018213 0.000000
vn -0.999832 0.018309 0.000000
vn -0.999820 0.018995 0.000000
vn -0.999820 0.018995 0.000000
vn 0.000000 0.000000 -1.000000
vn 0.000000 0.000000 -1.000000
vn -1.000000 0.000000 0.000000
vn -1.000000 0.000000 0.000000
vn 1.000000 0.000000 0.000000
vn 1.000000 0.000000 0.000000
vn 0.000000 -0.253842 0.967246
vn 0.000000 -0.253842 0.967246
vn 0.000000 0.046834 0.998903
vn 0.000000 0.046834 0.998903
vn 0.000000 1.000000 0.000000
vn 0.000000 1.000000 0.000000
vn 0.000000 1.000000 0.000000
vn 0.000000 1.000000 0.000000
vn 0.000000 0.046834 -0.998903
vn 0.000000 0.046834 -0.998903
vn 0.000000 -0.253842 -0.967246
vn 0.000000 -0.253842 -0.967246
vn 0.000000 -1.000000 0.000000
vn 0.000000 -1.000000 0.000000
vn 0.000000 -1.000000 0.000000
vn 0.000000 -1.000000 0.000000
vn 0.838518 -0.544873 0.000000
vn 0.838518 -0.544873 0.000000
vn 0.995352 0.096308 0.000000
vn 0.995352 0.096308 0.000000
vn -0.838518 -0.544874 0.000000
vn -0.838518 -0.544874 0.000000
vn -0.995352 0.096308 0.000000
vn -0.995352 0.096308 0.000000
vn 0.000000 0.512246 0.858839
vn 0.000000 0.512246 0.858839
vn 0.816434 0.577438 0.000000
vn 0.816434 0.577438 0.000000
vn 0.000000 0.512246 -0.858839
vn 0.000000 0.512246 -0.858839
vn -0.816434 0.577439 0.000000
vn -0.816434 0.577439 0.000000
vn 0.000000 0.748689 0.662922
vn 0.000000 0.748689 0.662922
vn 0.494974 0.868908 0.000000
vn 0.494974 0.868908 0.000000
vn 0.494974 0.868908 0.000000
vn 0.494974 0.868908 0.000000
vn 0.000000 0.748689 -0.662922
vn 0.000000 0.748689 -0.662922
vn -0.494973 0.868908 0.000000
vn -0.494973 0.868908 0.000000
vn -0.494973 0.868908 0.000000
vn -0.494973 0.868908 0.000000
vn 0.000000 -0.998155 -0.060725
vn 0.000000 -0.998155 -0.060725
vn 0.039109 -0.999235 0.000000
vn 0.039109 -0.999235 0.000000
vn 0.000000 -0.998155 0.060725
vn 0.000000 -0.998155 0.060725
vn -0.039109 -0.999235 0.000000
vn -0.039109 -0.999235 0.000000
vn 0.000000 0.000000 1.000000
vn 0.000000 0.000000 1.000000
vn 0.000000 0.000000 1.000000
vn 0.000000 0.000000 1.000000
vn -1.000000 0.000000 0.000000
vn -1.000000 0.000000 0.000000
vn -1.000000 0.000000 0.000000
vn -1.000000 0.000000 0.000000
vn 0.000000 0.000000 -1.000000
vn 0.000000 0.000000 -1.000000
vn 0.000000 0.000000 -1.000000
vn 0.000000 0.000000 -1.000000
vn 1.000000 0.000000 0.000000
vn 1.000000 0.000000 0.000000
vn 1.000000 0.000000 0.000000
vn 1.000000 0.000000 0.000000
vn 0.000000 -0.101523 0.994833
vn 0.000000 -0.101523 0.994833
vn 0.000000 -0.101524 0.994833
vn 0.000000 -0.101523 0.994833
vn 0.000000 1.000000 0.000000
vn 0.000000 1.000000 0.000000
vn 0.000000 1.000000 0.000000
vn 0.000000 1.000000 0.000000
vn -0.000000 0.112402 -0.993663
vn -0.000000 0.112402 -0.993663
vn -0.000000 0.107894 -0.994162
vn -0.000000 0.107894 -0.994162
vn 0.000000 -1.000000 -0.000000
vn 0.000000 -1.000000 -0.000000
vn 0.000000 -1.000000 -0.000000
vn 0.000000 -1.000000 -0.000000
vn 0.999832 0.018310 0.000000
vn 0.999834 0.018213 0.000000
vn 0.999820 0.018996 0.000000
vn 0.999820 0.018996 0.000000
vn -0.999834 0.018213 0.000000
vn -0.999832 0.018309 0.000000
vn -0.999820 0.018995 0.000000
vn -0.999820 0.018995 0.000000
vn 0.000000 0.000000 -1.000000
vn 0.000000 0.000000 -1.000000
vn -1.000000 0.000000 0.000000
vn -1.000000 0.000000 0.000000
vn 1.000000 0.000000 0.000000
vn 1.000000 0.000000 0.000000
vn 0.000000 0.107894 0.994162
vn 0.000000 0.107894 0.994162
vn 0.000000 0.112402 0.993663
vn 0.000000 0.112402 0.993663
vn 0.000000 1.000000 0.000000
vn 0.000000 1.000000 0.000000
vn 0.000000 1.000000 0.000000
vn 0.000000 1.000000 0.000000
vn 0.000000 -0.101523 -0.994833
vn 0.000000 -0.101524 -0.994833
vn 0.000000 -0.101523 -0.994833
vn 0.000000 -0.101523 -0.994833
vn 0.000000 -1.000000 0.000000
vn 0.000000 -1.000000 0.000000
vn 0.000000 -1.000000 0.000000
vn 0.000000 -1.000000 0.000000
vn 0.999834 0.018213 0.000000
vn 0.999940 0.010989 0.000000
vn 0.999820 0.018995 0.000000
vn 0.999820 0.018995 0.000000
vn -0.999940 0.010989 0.000000
vn -0.999834 0.018213 0.000000
vn -0.999820 0.018995 0.000000
vn -0.999820 0.018995 0.000000
vn -1.000000 0.000000 0.000000
vn -1.000000 0.000000 0.000000
vn 0.000000 0.000000 1.000000
vn 0.000000 0.000000 1.000000
vn 1.000000 0.000000 0.000000
vn 1.000000 0.000000 0.000000
vn 0.000000 1.000000 0.000000
vn 0.000000 1.000000 0.000000
vn 0.000000 1.000000 0.000000
vn 0.000000 1.000000 0.000000
vn 1.000000 0.000000 0.000000
vn 1.000000 0.000000 0.000000
vn 0.000000 -1.000000 0.000000
vn 0.000000 -1.000000 0.000000
vn -1.000000 0.000000 0.000000
vn -1.000000 0.000000 0.000000
s 1
g polySurface11
usemtl blinn2SG
f 11/1/1 12/2/2 4/3/3 3/4/4
s off
f 3//5 4//6 6//7 5//8
f 5/5/9 6/6/10 9/7/11 10/8/12
s 2
f 7/9/13 8/10/14 2/11/15 1/12/16
s 3
f 12/2/17 9/13/18 6/14/19 4/3/20
s 4
f 10/8/21 11/1/22 3/4/23 5/5/24
f 7/9/25 1/12/26 11/1/22 10/8/21
s 1
f 1/12/27 2/11/28 12/2/2 11/1/1
s 3
f 2/11/29 8/10/30 9/13/18 12/2/17
s off
f 10/8/31 9/7/32 13/15/33 14/16/34
s 3
f 9/13/18 8/10/30 15/17/35 13/18/36
s 2
f 8/10/14 7/9/13 16/19/37 15/17/38
s 4
f 7/9/25 10/8/21 14/16/39 16/19/40
s off
f 27/20/41 28/21/42 20/22/43 19/23/44
f 19//45 20//46 22//47 21//48
s 5
f 21/24/49 22/25/50 25/26/51 26/27/52
s off
f 23/28/53 24/29/54 18/30/55 17/31/56
s 6
f 28/21/57 25/26/58 22/25/59 20/22/60
s 7
f 26/27/61 27/32/62 19/33/63 21/24/64
s 5
f 26/27/52 25/26/51 24/29/65 23/28/66
s 7
f 23/28/67 17/31/68 27/32/62 26/27/61
s 6
f 18/30/69 24/29/70 25/26/58 28/21/57
s 8
usemtl phong2SG
f 29/34/71 30/35/72 32/36/73 31/37/74
s off
f 41/38/75 42/39/76 43/40/77 44/41/78
s 9
f 33/42/79 34/43/80 36/44/81 35/45/82
s off
f 49/46/83 50/47/84 51/48/85 52/49/86
s 10
f 30/35/87 36/50/88 34/51/89 32/36/90
s 11
f 35/45/91 29/52/92 31/53/93 33/42/94
s 8
f 31/54/74 32/55/73 38/56/95 37/57/96
s 10
f 32/55/90 34/58/89 39/59/97 38/56/98
s 9
f 34/58/80 33/60/79 40/61/99 39/59/100
s 11
f 33/60/94 31/54/93 37/57/101 40/61/102
s 8
f 37/57/96 38/56/95 42/39/103 41/38/104
s off
f 38/56/105 39/59/106 43/40/107 42/39/108
s 9
f 39/59/100 40/61/99 44/41/109 43/40/110
s off
f 40/61/111 37/57/112 41/38/113 44/41/114
s 9
f 35/62/82 36/63/81 46/64/115 45/65/116
s 10
f 36/63/88 30/66/87 47/67/117 46/64/118
s 8
f 30/66/72 29/68/71 48/69/119 47/67/120
s 11
f 29/68/92 35/62/91 45/65/121 48/69/122
s off
f 45/65/123 46/64/124 50/47/125 49/46/126
f 46/64/127 47/67/128 51/48/129 50/47/130
f 47/67/131 48/69/132 52/49/133 51/48/134
f 48/69/135 45/65/136 49/46/137 52/49/138
usemtl blinn2SG
f 63/70/139 64/71/140 56/72/141 55/73/142
f 55//143 56//144 58//145 57//146
s 12
f 57/74/147 58/75/148 61/76/149 62/77/150
s off
f 59/78/151 60/79/152 54/80/153 53/81/154
s 13
f 64/71/155 61/76/156 58/75/157 56/72/158
s 14
f 62/77/159 63/82/160 55/83/161 57/74/162
s 12
f 62/77/150 61/76/149 60/79/163 59/78/164
s 14
f 59/78/165 53/81/166 63/82/160 62/77/159
s 13
f 54/80/167 60/79/168 61/76/156 64/71/155
s 15
f 75/84/169 76/85/170 68/86/171 67/87/172
s off
f 67//173 68//174 70//175 69//176
f 69/88/177 70/89/178 73/90/179 74/91/180
s 16
f 71/92/181 72/93/182 66/94/183 65/95/184
s 17
f 76/85/185 73/96/186 70/97/187 68/86/188
s 18
f 74/91/189 75/84/190 67/87/191 69/88/192
f 71/92/193 65/95/194 75/84/190 74/91/189
s 15
f 65/95/195 66/94/196 76/85/170 75/84/169
s 17
f 66/94/197 72/93/198 73/96/186 76/85/185
s off
f 74/91/199 73/90/200 77/98/201 78/99/202
s 17
f 73/96/186 72/93/198 79/100/203 77/101/204
s 16
f 72/93/182 71/92/181 80/102/205 79/100/206
s 18
f 71/92/193 74/91/189 78/99/207 80/102/208
